<svg width="281" height="378" viewBox="0 0 281 378" fill="none" xmlns="http://www.w3.org/2000/svg">
<g filter="url(#filter0_b_17_185)">
<rect x="51" width="232" height="349" rx="16" transform="rotate(8 51 0)" fill="#4E4E61" fill-opacity="0.35"/>
<rect x="51" width="232" height="349" rx="16" transform="rotate(8 51 0)" fill="url(#paint0_linear_17_185)" fill-opacity="0.75"/>
<rect x="51.4255" y="0.564721" width="231" height="348" rx="15.5" transform="rotate(8 51.4255 0.564721)" stroke="url(#paint1_linear_17_185)" stroke-opacity="0.15"/>
</g>
<g filter="url(#filter1_b_17_185)">
<rect x="28" width="232" height="349" rx="16" transform="rotate(4 28 0)" fill="#4E4E61" fill-opacity="0.75"/>
<rect x="28" width="232" height="349" rx="16" transform="rotate(4 28 0)" fill="url(#paint2_linear_17_185)" fill-opacity="0.75"/>
<rect x="28.4639" y="0.53366" width="231" height="348" rx="15.5" transform="rotate(4 28.4639 0.53366)" stroke="url(#paint3_linear_17_185)" stroke-opacity="0.15"/>
</g>
<g filter="url(#filter2_b_17_185)">
<g clip-path="url(#clip0_17_185)">
<rect width="232" height="349" rx="16" fill="#252530"/>
<circle opacity="0.5" cx="226" cy="58" r="130" fill="white" fill-opacity="0.1"/>
<circle opacity="0.5" cx="134.5" cy="314.5" r="189.5" fill="url(#paint4_linear_17_185)" fill-opacity="0.1"/>
<path d="M120.75 290H131C133.209 290 135 291.791 135 294V299.389V306.611V312C135 314.209 133.209 316 131 316H120.75H111.25H101C98.7909 316 97 314.209 97 312V306.611V299.389V294C97 291.791 98.7909 290 101 290H111.25H120.75Z" fill="#F6C859"/>
<path d="M111.25 290H120.75M111.25 290H101C98.7909 290 97 291.791 97 294V299.389M111.25 290V294.694M120.75 290H131C133.209 290 135 291.791 135 294V299.389M120.75 290V294.694H111.25M111.25 316H101C98.7909 316 97 314.209 97 312V306.611M111.25 316H120.75M111.25 316V311.306M120.75 316H131C133.209 316 135 314.209 135 312V306.611M120.75 316V311.306M97 306.611V299.389M97 306.611H111.25M135 306.611V299.389M135 306.611H120.75M97 299.389H111.25M135 299.389H120.75V306.611M111.25 299.389V306.611M111.25 299.389V294.694M111.25 306.611V311.306M120.75 306.611V311.306M111.25 311.306H120.75" stroke="#7D662D"/>
<path d="M99.9623 268.194C99.1436 268.194 98.441 267.987 97.8543 267.572C97.271 267.155 96.8219 266.553 96.507 265.768C96.1955 264.979 96.0397 264.029 96.0397 262.919C96.043 261.809 96.2004 260.864 96.512 260.085C96.8269 259.303 97.276 258.706 97.8593 258.295C98.4459 257.884 99.1469 257.679 99.9623 257.679C100.778 257.679 101.479 257.884 102.065 258.295C102.652 258.706 103.101 259.303 103.413 260.085C103.727 260.867 103.885 261.812 103.885 262.919C103.885 264.033 103.727 264.984 103.413 265.773C103.101 266.558 102.652 267.158 102.065 267.572C101.482 267.987 100.781 268.194 99.9623 268.194ZM99.9623 266.638C100.599 266.638 101.101 266.325 101.469 265.698C101.84 265.068 102.025 264.142 102.025 262.919C102.025 262.11 101.941 261.431 101.772 260.881C101.603 260.33 101.364 259.916 101.056 259.638C100.748 259.356 100.383 259.215 99.9623 259.215C99.3292 259.215 98.8287 259.53 98.4608 260.16C98.093 260.786 97.9073 261.706 97.904 262.919C97.9007 263.731 97.9819 264.414 98.1476 264.967C98.3167 265.521 98.5553 265.938 98.8635 266.22C99.1718 266.499 99.538 266.638 99.9623 266.638ZM109.156 268.139C108.417 268.139 107.761 268.015 107.187 267.766C106.617 267.518 106.17 267.178 105.845 266.747C105.523 266.313 105.364 265.821 105.368 265.271C105.364 264.843 105.457 264.45 105.646 264.092C105.835 263.734 106.09 263.436 106.412 263.197C106.736 262.955 107.098 262.801 107.495 262.735V262.665C106.972 262.549 106.548 262.283 106.223 261.865C105.901 261.444 105.742 260.959 105.745 260.408C105.742 259.885 105.888 259.417 106.183 259.006C106.478 258.595 106.882 258.272 107.396 258.037C107.91 257.798 108.496 257.679 109.156 257.679C109.809 257.679 110.391 257.798 110.901 258.037C111.415 258.272 111.819 258.595 112.114 259.006C112.412 259.417 112.562 259.885 112.562 260.408C112.562 260.959 112.397 261.444 112.069 261.865C111.745 262.283 111.325 262.549 110.812 262.665V262.735C111.209 262.801 111.567 262.955 111.885 263.197C112.207 263.436 112.462 263.734 112.651 264.092C112.843 264.45 112.939 264.843 112.939 265.271C112.939 265.821 112.777 266.313 112.452 266.747C112.127 267.178 111.68 267.518 111.11 267.766C110.543 268.015 109.892 268.139 109.156 268.139ZM109.156 266.717C109.537 266.717 109.869 266.653 110.15 266.523C110.432 266.391 110.651 266.205 110.807 265.967C110.962 265.728 111.042 265.453 111.045 265.141C111.042 264.817 110.957 264.53 110.792 264.281C110.629 264.029 110.406 263.832 110.12 263.69C109.839 263.547 109.517 263.476 109.156 263.476C108.791 263.476 108.467 263.547 108.182 263.69C107.897 263.832 107.671 264.029 107.505 264.281C107.343 264.53 107.263 264.817 107.267 265.141C107.263 265.453 107.34 265.728 107.495 265.967C107.651 266.202 107.87 266.386 108.152 266.518C108.437 266.651 108.772 266.717 109.156 266.717ZM109.156 262.079C109.468 262.079 109.743 262.016 109.981 261.89C110.223 261.764 110.414 261.588 110.553 261.363C110.692 261.138 110.763 260.877 110.767 260.582C110.763 260.291 110.694 260.036 110.558 259.817C110.422 259.595 110.233 259.424 109.991 259.305C109.749 259.182 109.471 259.121 109.156 259.121C108.834 259.121 108.551 259.182 108.306 259.305C108.064 259.424 107.875 259.595 107.739 259.817C107.607 260.036 107.542 260.291 107.545 260.582C107.542 260.877 107.608 261.138 107.744 261.363C107.883 261.585 108.074 261.761 108.316 261.89C108.561 262.016 108.841 262.079 109.156 262.079ZM118.75 257.341L115.469 269.531H113.893L117.174 257.341H118.75ZM119.878 268V266.668L123.413 263.202C123.751 262.861 124.033 262.558 124.258 262.293C124.484 262.027 124.653 261.771 124.766 261.522C124.878 261.273 124.935 261.008 124.935 260.727C124.935 260.405 124.862 260.13 124.716 259.901C124.57 259.669 124.369 259.49 124.114 259.364C123.859 259.238 123.569 259.175 123.244 259.175C122.909 259.175 122.616 259.245 122.364 259.384C122.112 259.52 121.917 259.714 121.778 259.966C121.642 260.218 121.574 260.518 121.574 260.866H119.819C119.819 260.219 119.966 259.658 120.261 259.18C120.556 258.703 120.962 258.334 121.479 258.072C122 257.81 122.596 257.679 123.269 257.679C123.952 257.679 124.552 257.807 125.069 258.062C125.586 258.317 125.987 258.667 126.272 259.111C126.56 259.555 126.704 260.062 126.704 260.632C126.704 261.013 126.632 261.388 126.486 261.756C126.34 262.124 126.083 262.531 125.715 262.979C125.351 263.426 124.838 263.968 124.179 264.604L122.424 266.389V266.459H126.859V268H119.878ZM132.193 268.139C131.454 268.139 130.798 268.015 130.224 267.766C129.654 267.518 129.207 267.178 128.882 266.747C128.561 266.313 128.401 265.821 128.405 265.271C128.401 264.843 128.494 264.45 128.683 264.092C128.872 263.734 129.127 263.436 129.449 263.197C129.774 262.955 130.135 262.801 130.533 262.735V262.665C130.009 262.549 129.585 262.283 129.26 261.865C128.938 261.444 128.779 260.959 128.783 260.408C128.779 259.885 128.925 259.417 129.22 259.006C129.515 258.595 129.919 258.272 130.433 258.037C130.947 257.798 131.534 257.679 132.193 257.679C132.846 257.679 133.428 257.798 133.938 258.037C134.452 258.272 134.856 258.595 135.151 259.006C135.449 259.417 135.599 259.885 135.599 260.408C135.599 260.959 135.435 261.444 135.106 261.865C134.782 262.283 134.362 262.549 133.849 262.665V262.735C134.246 262.801 134.604 262.955 134.922 263.197C135.244 263.436 135.499 263.734 135.688 264.092C135.88 264.45 135.976 264.843 135.976 265.271C135.976 265.821 135.814 266.313 135.489 266.747C135.164 267.178 134.717 267.518 134.147 267.766C133.58 268.015 132.929 268.139 132.193 268.139ZM132.193 266.717C132.574 266.717 132.906 266.653 133.187 266.523C133.469 266.391 133.688 266.205 133.844 265.967C133.999 265.728 134.079 265.453 134.082 265.141C134.079 264.817 133.994 264.53 133.829 264.281C133.666 264.029 133.443 263.832 133.158 263.69C132.876 263.547 132.554 263.476 132.193 263.476C131.829 263.476 131.504 263.547 131.219 263.69C130.934 263.832 130.708 264.029 130.543 264.281C130.38 264.53 130.301 264.817 130.304 265.141C130.301 265.453 130.377 265.728 130.533 265.967C130.688 266.202 130.907 266.386 131.189 266.518C131.474 266.651 131.809 266.717 132.193 266.717ZM132.193 262.079C132.505 262.079 132.78 262.016 133.018 261.89C133.26 261.764 133.451 261.588 133.59 261.363C133.729 261.138 133.801 260.877 133.804 260.582C133.801 260.291 133.731 260.036 133.595 259.817C133.459 259.595 133.27 259.424 133.028 259.305C132.786 259.182 132.508 259.121 132.193 259.121C131.872 259.121 131.588 259.182 131.343 259.305C131.101 259.424 130.912 259.595 130.776 259.817C130.644 260.036 130.579 260.291 130.582 260.582C130.579 260.877 130.645 261.138 130.781 261.363C130.92 261.585 131.111 261.761 131.353 261.89C131.598 262.016 131.878 262.079 132.193 262.079Z" fill="white"/>
<path d="M36.7784 233.909L36.9091 231.608L34.9773 232.875L34.2841 231.67L36.3466 230.636L34.2841 229.602L34.9773 228.398L36.9091 229.665L36.7784 227.364H38.1591L38.0341 229.665L39.9659 228.398L40.6591 229.602L38.5909 230.636L40.6591 231.67L39.9659 232.875L38.0341 231.608L38.1591 233.909H36.7784ZM45.4659 233.909L45.5966 231.608L43.6648 232.875L42.9716 231.67L45.0341 230.636L42.9716 229.602L43.6648 228.398L45.5966 229.665L45.4659 227.364H46.8466L46.7216 229.665L48.6534 228.398L49.3466 229.602L47.2784 230.636L49.3466 231.67L48.6534 232.875L46.7216 231.608L46.8466 233.909H45.4659ZM54.1534 233.909L54.2841 231.608L52.3523 232.875L51.6591 231.67L53.7216 230.636L51.6591 229.602L52.3523 228.398L54.2841 229.665L54.1534 227.364H55.5341L55.4091 229.665L57.3409 228.398L58.0341 229.602L55.9659 230.636L58.0341 231.67L57.3409 232.875L55.4091 231.608L55.5341 233.909H54.1534ZM62.8409 233.909L62.9716 231.608L61.0398 232.875L60.3466 231.67L62.4091 230.636L60.3466 229.602L61.0398 228.398L62.9716 229.665L62.8409 227.364H64.2216L64.0966 229.665L66.0284 228.398L66.7216 229.602L64.6534 230.636L66.7216 231.67L66.0284 232.875L64.0966 231.608L64.2216 233.909H62.8409Z" fill="white"/>
<path d="M79.7784 233.909L79.9091 231.608L77.9773 232.875L77.2841 231.67L79.3466 230.636L77.2841 229.602L77.9773 228.398L79.9091 229.665L79.7784 227.364H81.1591L81.0341 229.665L82.9659 228.398L83.6591 229.602L81.5909 230.636L83.6591 231.67L82.9659 232.875L81.0341 231.608L81.1591 233.909H79.7784ZM88.4659 233.909L88.5966 231.608L86.6648 232.875L85.9716 231.67L88.0341 230.636L85.9716 229.602L86.6648 228.398L88.5966 229.665L88.4659 227.364H89.8466L89.7216 229.665L91.6534 228.398L92.3466 229.602L90.2784 230.636L92.3466 231.67L91.6534 232.875L89.7216 231.608L89.8466 233.909H88.4659ZM97.1534 233.909L97.2841 231.608L95.3523 232.875L94.6591 231.67L96.7216 230.636L94.6591 229.602L95.3523 228.398L97.2841 229.665L97.1534 227.364H98.5341L98.4091 229.665L100.341 228.398L101.034 229.602L98.9659 230.636L101.034 231.67L100.341 232.875L98.4091 231.608L98.5341 233.909H97.1534ZM105.841 233.909L105.972 231.608L104.04 232.875L103.347 231.67L105.409 230.636L103.347 229.602L104.04 228.398L105.972 229.665L105.841 227.364H107.222L107.097 229.665L109.028 228.398L109.722 229.602L107.653 230.636L109.722 231.67L109.028 232.875L107.097 231.608L107.222 233.909H105.841Z" fill="white"/>
<path d="M122.778 233.909L122.909 231.608L120.977 232.875L120.284 231.67L122.347 230.636L120.284 229.602L120.977 228.398L122.909 229.665L122.778 227.364H124.159L124.034 229.665L125.966 228.398L126.659 229.602L124.591 230.636L126.659 231.67L125.966 232.875L124.034 231.608L124.159 233.909H122.778ZM131.466 233.909L131.597 231.608L129.665 232.875L128.972 231.67L131.034 230.636L128.972 229.602L129.665 228.398L131.597 229.665L131.466 227.364H132.847L132.722 229.665L134.653 228.398L135.347 229.602L133.278 230.636L135.347 231.67L134.653 232.875L132.722 231.608L132.847 233.909H131.466ZM140.153 233.909L140.284 231.608L138.352 232.875L137.659 231.67L139.722 230.636L137.659 229.602L138.352 228.398L140.284 229.665L140.153 227.364H141.534L141.409 229.665L143.341 228.398L144.034 229.602L141.966 230.636L144.034 231.67L143.341 232.875L141.409 231.608L141.534 233.909H140.153ZM148.841 233.909L148.972 231.608L147.04 232.875L146.347 231.67L148.409 230.636L146.347 229.602L147.04 228.398L148.972 229.665L148.841 227.364H150.222L150.097 229.665L152.028 228.398L152.722 229.602L150.653 230.636L152.722 231.67L152.028 232.875L150.097 231.608L150.222 233.909H148.841Z" fill="white"/>
<path d="M163.495 239V237.477L167.535 233.517C167.921 233.127 168.243 232.78 168.501 232.477C168.758 232.174 168.951 231.881 169.08 231.597C169.209 231.312 169.273 231.009 169.273 230.688C169.273 230.32 169.19 230.006 169.023 229.744C168.857 229.479 168.628 229.275 168.336 229.131C168.044 228.987 167.713 228.915 167.342 228.915C166.959 228.915 166.624 228.994 166.336 229.153C166.048 229.309 165.825 229.53 165.665 229.818C165.51 230.106 165.433 230.449 165.433 230.847H163.427C163.427 230.108 163.595 229.466 163.933 228.92C164.27 228.375 164.734 227.953 165.325 227.653C165.919 227.354 166.601 227.205 167.37 227.205C168.15 227.205 168.836 227.35 169.427 227.642C170.018 227.934 170.476 228.333 170.802 228.841C171.131 229.348 171.296 229.928 171.296 230.58C171.296 231.015 171.213 231.443 171.046 231.864C170.879 232.284 170.586 232.75 170.165 233.261C169.749 233.773 169.164 234.392 168.41 235.119L166.404 237.159V237.239H171.472V239H163.495ZM178.165 227.364V239H176.058V229.415H175.989L173.268 231.153V229.222L176.16 227.364H178.165ZM185.16 227.205C185.717 227.208 186.258 227.307 186.785 227.5C187.315 227.689 187.792 228 188.217 228.432C188.641 228.86 188.978 229.434 189.228 230.153C189.478 230.873 189.603 231.763 189.603 232.824C189.607 233.824 189.501 234.718 189.285 235.506C189.073 236.29 188.768 236.953 188.37 237.494C187.972 238.036 187.493 238.449 186.933 238.733C186.372 239.017 185.741 239.159 185.04 239.159C184.306 239.159 183.654 239.015 183.086 238.727C182.522 238.439 182.065 238.045 181.717 237.545C181.368 237.045 181.154 236.473 181.075 235.83H183.148C183.254 236.292 183.47 236.659 183.796 236.932C184.126 237.201 184.54 237.335 185.04 237.335C185.847 237.335 186.469 236.985 186.904 236.284C187.34 235.583 187.558 234.61 187.558 233.364H187.478C187.292 233.697 187.052 233.985 186.756 234.227C186.461 234.466 186.126 234.65 185.751 234.778C185.379 234.907 184.986 234.972 184.569 234.972C183.887 234.972 183.273 234.809 182.728 234.483C182.186 234.157 181.756 233.71 181.438 233.142C181.124 232.574 180.965 231.924 180.961 231.193C180.961 230.436 181.135 229.756 181.484 229.153C181.836 228.547 182.326 228.07 182.955 227.722C183.584 227.369 184.319 227.197 185.16 227.205ZM185.165 228.909C184.756 228.909 184.387 229.009 184.058 229.21C183.732 229.407 183.474 229.676 183.285 230.017C183.099 230.354 183.006 230.731 183.006 231.148C183.01 231.561 183.103 231.936 183.285 232.273C183.47 232.61 183.722 232.877 184.04 233.074C184.362 233.271 184.73 233.369 185.143 233.369C185.45 233.369 185.736 233.311 186.001 233.193C186.266 233.076 186.497 232.913 186.694 232.705C186.895 232.492 187.05 232.252 187.16 231.983C187.273 231.714 187.328 231.43 187.325 231.131C187.325 230.733 187.23 230.366 187.04 230.028C186.855 229.691 186.599 229.42 186.273 229.216C185.951 229.011 185.582 228.909 185.165 228.909ZM191.609 239L196.558 229.205V229.125H190.813V227.364H198.739V229.165L193.796 239H191.609Z" fill="white"/>
<path d="M79.7834 209L77.3203 200.273H79.0206L80.593 206.686H80.674L82.353 200.273H83.8999L85.5831 206.69H85.6598L87.2322 200.273H88.9325L86.4695 209H84.9098L83.1626 202.876H83.0945L81.343 209H79.7834ZM92.1903 209.128C91.5341 209.128 90.9673 208.991 90.4901 208.719C90.0156 208.443 89.6506 208.054 89.3949 207.551C89.1392 207.045 89.0114 206.45 89.0114 205.766C89.0114 205.092 89.1392 204.501 89.3949 203.993C89.6534 203.482 90.0142 203.084 90.4773 202.8C90.9403 202.513 91.4844 202.369 92.1094 202.369C92.5128 202.369 92.8935 202.435 93.2514 202.565C93.6122 202.693 93.9304 202.892 94.206 203.162C94.4844 203.432 94.7031 203.776 94.8622 204.193C95.0213 204.608 95.1009 205.102 95.1009 205.676V206.149H89.7358V205.109H93.6222C93.6193 204.814 93.5554 204.551 93.4304 204.321C93.3054 204.088 93.1307 203.905 92.9062 203.771C92.6847 203.638 92.4261 203.571 92.1307 203.571C91.8153 203.571 91.5384 203.648 91.2997 203.801C91.0611 203.952 90.875 204.151 90.7415 204.398C90.6108 204.642 90.544 204.911 90.5412 205.203V206.111C90.5412 206.491 90.6108 206.818 90.75 207.091C90.8892 207.361 91.0838 207.568 91.3338 207.713C91.5838 207.855 91.8764 207.926 92.2116 207.926C92.4361 207.926 92.6392 207.895 92.821 207.832C93.0028 207.767 93.1605 207.672 93.294 207.547C93.4276 207.422 93.5284 207.267 93.5966 207.082L95.0369 207.244C94.946 207.625 94.7727 207.957 94.517 208.241C94.2642 208.523 93.9403 208.741 93.5455 208.898C93.1506 209.051 92.6989 209.128 92.1903 209.128ZM97.9485 205.165V209H96.4059V202.455H97.8803V203.567H97.957C98.1076 203.2 98.3477 202.909 98.6772 202.693C99.0096 202.477 99.4201 202.369 99.9087 202.369C100.36 202.369 100.754 202.466 101.089 202.659C101.427 202.852 101.689 203.132 101.873 203.499C102.061 203.865 102.153 204.31 102.15 204.832V209H100.608V205.071C100.608 204.634 100.494 204.291 100.267 204.044C100.042 203.797 99.7312 203.673 99.3335 203.673C99.0636 203.673 98.8235 203.733 98.6133 203.852C98.4059 203.969 98.2425 204.138 98.1232 204.359C98.0067 204.581 97.9485 204.849 97.9485 205.165ZM104.443 211.455C104.233 211.455 104.038 211.438 103.859 211.403C103.683 211.372 103.542 211.335 103.437 211.293L103.795 210.091C104.02 210.156 104.22 210.188 104.396 210.185C104.572 210.182 104.727 210.126 104.86 210.018C104.997 209.913 105.112 209.737 105.206 209.49L105.338 209.136L102.964 202.455H104.6L106.109 207.398H106.177L107.69 202.455H109.331L106.71 209.793C106.588 210.139 106.426 210.436 106.224 210.683C106.022 210.933 105.775 211.124 105.483 211.254C105.193 211.388 104.846 211.455 104.443 211.455ZM113.031 209.128C112.391 209.128 111.837 208.987 111.369 208.706C110.9 208.425 110.536 208.031 110.278 207.526C110.022 207.02 109.894 206.429 109.894 205.753C109.894 205.077 110.022 204.484 110.278 203.976C110.536 203.467 110.9 203.072 111.369 202.791C111.837 202.51 112.391 202.369 113.031 202.369C113.67 202.369 114.224 202.51 114.692 202.791C115.161 203.072 115.523 203.467 115.779 203.976C116.038 204.484 116.167 205.077 116.167 205.753C116.167 206.429 116.038 207.02 115.779 207.526C115.523 208.031 115.161 208.425 114.692 208.706C114.224 208.987 113.67 209.128 113.031 209.128ZM113.039 207.892C113.386 207.892 113.675 207.797 113.908 207.607C114.141 207.413 114.315 207.155 114.428 206.831C114.545 206.507 114.603 206.146 114.603 205.749C114.603 205.348 114.545 204.986 114.428 204.662C114.315 204.335 114.141 204.075 113.908 203.882C113.675 203.689 113.386 203.592 113.039 203.592C112.684 203.592 112.388 203.689 112.153 203.882C111.92 204.075 111.745 204.335 111.629 204.662C111.515 204.986 111.458 205.348 111.458 205.749C111.458 206.146 111.515 206.507 111.629 206.831C111.745 207.155 111.92 207.413 112.153 207.607C112.388 207.797 112.684 207.892 113.039 207.892ZM127.991 203.217H126.397C126.352 202.956 126.268 202.724 126.146 202.523C126.024 202.318 125.872 202.145 125.69 202.003C125.508 201.861 125.301 201.754 125.068 201.683C124.838 201.609 124.589 201.572 124.322 201.572C123.848 201.572 123.427 201.692 123.061 201.93C122.694 202.166 122.407 202.513 122.2 202.97C121.993 203.425 121.889 203.98 121.889 204.636C121.889 205.304 121.993 205.866 122.2 206.324C122.41 206.778 122.697 207.122 123.061 207.355C123.427 207.585 123.846 207.7 124.318 207.7C124.579 207.7 124.824 207.666 125.051 207.598C125.281 207.527 125.487 207.423 125.669 207.287C125.853 207.151 126.008 206.983 126.133 206.784C126.261 206.585 126.349 206.358 126.397 206.102L127.991 206.111C127.931 206.526 127.802 206.915 127.603 207.278C127.407 207.642 127.15 207.963 126.832 208.241C126.514 208.517 126.142 208.733 125.716 208.889C125.289 209.043 124.816 209.119 124.297 209.119C123.529 209.119 122.845 208.942 122.243 208.587C121.64 208.232 121.166 207.719 120.819 207.048C120.473 206.378 120.299 205.574 120.299 204.636C120.299 203.696 120.474 202.892 120.824 202.224C121.173 201.554 121.649 201.041 122.251 200.686C122.853 200.331 123.535 200.153 124.297 200.153C124.782 200.153 125.234 200.222 125.652 200.358C126.069 200.494 126.441 200.695 126.768 200.959C127.095 201.22 127.363 201.541 127.574 201.922C127.787 202.3 127.926 202.732 127.991 203.217ZM132.226 209.128C131.587 209.128 131.033 208.987 130.564 208.706C130.095 208.425 129.732 208.031 129.473 207.526C129.217 207.02 129.089 206.429 129.089 205.753C129.089 205.077 129.217 204.484 129.473 203.976C129.732 203.467 130.095 203.072 130.564 202.791C131.033 202.51 131.587 202.369 132.226 202.369C132.865 202.369 133.419 202.51 133.888 202.791C134.357 203.072 134.719 203.467 134.974 203.976C135.233 204.484 135.362 205.077 135.362 205.753C135.362 206.429 135.233 207.02 134.974 207.526C134.719 208.031 134.357 208.425 133.888 208.706C133.419 208.987 132.865 209.128 132.226 209.128ZM132.234 207.892C132.581 207.892 132.871 207.797 133.104 207.607C133.337 207.413 133.51 207.155 133.624 206.831C133.74 206.507 133.798 206.146 133.798 205.749C133.798 205.348 133.74 204.986 133.624 204.662C133.51 204.335 133.337 204.075 133.104 203.882C132.871 203.689 132.581 203.592 132.234 203.592C131.879 203.592 131.584 203.689 131.348 203.882C131.115 204.075 130.94 204.335 130.824 204.662C130.71 204.986 130.653 205.348 130.653 205.749C130.653 206.146 130.71 206.507 130.824 206.831C130.94 207.155 131.115 207.413 131.348 207.607C131.584 207.797 131.879 207.892 132.234 207.892ZM141.845 204.185L140.439 204.338C140.399 204.196 140.329 204.062 140.23 203.938C140.133 203.812 140.002 203.712 139.838 203.635C139.673 203.558 139.471 203.52 139.233 203.52C138.912 203.52 138.642 203.589 138.423 203.729C138.207 203.868 138.1 204.048 138.103 204.27C138.1 204.46 138.17 204.615 138.312 204.734C138.457 204.854 138.696 204.952 139.028 205.028L140.145 205.267C140.764 205.401 141.224 205.612 141.525 205.902C141.829 206.192 141.983 206.571 141.985 207.04C141.983 207.452 141.862 207.815 141.623 208.131C141.387 208.443 141.059 208.687 140.639 208.864C140.218 209.04 139.735 209.128 139.19 209.128C138.389 209.128 137.744 208.96 137.255 208.625C136.767 208.287 136.475 207.817 136.382 207.214L137.886 207.07C137.954 207.365 138.099 207.588 138.321 207.739C138.542 207.889 138.831 207.964 139.186 207.964C139.552 207.964 139.846 207.889 140.068 207.739C140.292 207.588 140.404 207.402 140.404 207.18C140.404 206.993 140.332 206.838 140.187 206.716C140.045 206.594 139.824 206.5 139.522 206.435L138.406 206.2C137.778 206.07 137.314 205.849 137.012 205.54C136.711 205.227 136.562 204.832 136.565 204.355C136.562 203.952 136.672 203.602 136.893 203.307C137.118 203.009 137.429 202.778 137.826 202.616C138.227 202.452 138.689 202.369 139.211 202.369C139.978 202.369 140.582 202.533 141.022 202.859C141.466 203.186 141.74 203.628 141.845 204.185ZM146.526 202.455V203.648H142.763V202.455H146.526ZM143.692 200.886H145.235V207.031C145.235 207.239 145.266 207.398 145.328 207.509C145.394 207.616 145.479 207.69 145.584 207.73C145.689 207.77 145.806 207.79 145.934 207.79C146.03 207.79 146.118 207.783 146.198 207.768C146.28 207.754 146.343 207.741 146.385 207.73L146.645 208.936C146.563 208.964 146.445 208.996 146.292 209.03C146.141 209.064 145.956 209.084 145.738 209.089C145.351 209.101 145.003 209.043 144.694 208.915C144.384 208.784 144.138 208.582 143.956 208.31C143.777 208.037 143.689 207.696 143.692 207.287V200.886ZM149.7 209.132C149.285 209.132 148.911 209.058 148.579 208.911C148.249 208.76 147.988 208.538 147.795 208.246C147.604 207.953 147.509 207.592 147.509 207.163C147.509 206.794 147.577 206.489 147.714 206.247C147.85 206.006 148.036 205.812 148.272 205.668C148.508 205.523 148.773 205.413 149.069 205.339C149.367 205.263 149.675 205.207 149.994 205.173C150.377 205.134 150.688 205.098 150.927 205.067C151.165 205.033 151.339 204.982 151.447 204.913C151.558 204.842 151.613 204.733 151.613 204.585V204.56C151.613 204.239 151.518 203.99 151.327 203.814C151.137 203.638 150.863 203.55 150.505 203.55C150.127 203.55 149.827 203.632 149.606 203.797C149.387 203.962 149.239 204.156 149.163 204.381L147.722 204.176C147.836 203.778 148.023 203.446 148.285 203.179C148.546 202.909 148.866 202.707 149.244 202.574C149.621 202.438 150.039 202.369 150.496 202.369C150.812 202.369 151.126 202.406 151.438 202.48C151.751 202.554 152.036 202.676 152.295 202.847C152.553 203.014 152.761 203.243 152.917 203.533C153.076 203.822 153.156 204.185 153.156 204.619V209H151.673V208.101H151.621C151.528 208.283 151.396 208.453 151.225 208.612C151.058 208.768 150.846 208.895 150.59 208.991C150.337 209.085 150.04 209.132 149.7 209.132ZM150.1 207.999C150.41 207.999 150.678 207.937 150.906 207.815C151.133 207.69 151.308 207.526 151.43 207.321C151.555 207.116 151.617 206.893 151.617 206.652V205.881C151.569 205.92 151.487 205.957 151.37 205.991C151.256 206.026 151.129 206.055 150.987 206.081C150.844 206.107 150.704 206.129 150.565 206.149C150.425 206.169 150.305 206.186 150.202 206.2C149.972 206.232 149.766 206.283 149.585 206.354C149.403 206.425 149.259 206.524 149.154 206.652C149.049 206.777 148.996 206.939 148.996 207.138C148.996 207.422 149.1 207.636 149.308 207.781C149.515 207.926 149.779 207.999 150.1 207.999Z" fill="#C1C1CD"/>
<g clip-path="url(#clip1_17_185)">
<path fill-rule="evenodd" clip-rule="evenodd" d="M108.219 62.3215H123.207V35.6294H108.219V62.3215Z" fill="#FF5F00"/>
<path fill-rule="evenodd" clip-rule="evenodd" d="M109.171 48.9755C109.171 43.5603 111.73 38.7374 115.714 35.6295C112.8 33.3562 109.124 32 105.128 32C95.6683 32 88.0001 39.6003 88.0001 48.9755C88.0001 58.3507 95.6683 65.951 105.128 65.951C109.124 65.951 112.8 64.5949 115.714 62.3216C111.73 59.2132 109.171 54.3907 109.171 48.9755Z" fill="#EB001B"/>
<path fill-rule="evenodd" clip-rule="evenodd" d="M142.892 59.4947V58.8359H142.719L142.519 59.2891L142.319 58.8359H142.146V59.4947H142.268V58.9977L142.456 59.4263H142.583L142.77 58.9967V59.4947H142.892ZM141.793 59.4947V58.9481H142.015V58.8369H141.449V58.9481H141.671V59.4947H141.793ZM143.427 48.9755C143.427 58.3507 135.759 65.951 126.299 65.951C122.304 65.951 118.627 64.5949 115.714 62.3216C119.698 59.2136 122.256 54.3907 122.256 48.9755C122.256 43.5608 119.698 38.7379 115.714 35.6295C118.627 33.3562 122.304 32 126.299 32C135.759 32 143.427 39.6003 143.427 48.9755Z" fill="#F79E1B"/>
</g>
</g>
<rect x="0.5" y="0.5" width="231" height="348" rx="15.5" stroke="url(#paint5_linear_17_185)" stroke-opacity="0.15"/>
</g>
<path d="M22.4202 21.9917H13.5677V31.5081H22.4202V21.9917Z" fill="#F4B2B0"/>
<path d="M15.7692 28.9183C15.5146 28.9183 15.3081 28.698 15.3081 28.4265V25.2789C15.3081 25.0074 15.5146 24.7871 15.7692 24.7871C16.0238 24.7871 16.2303 25.0073 16.2303 25.2789V28.4265C16.2302 28.698 16.0238 28.9183 15.7692 28.9183Z" fill="#B3404A"/>
<path d="M17.9938 28.9183C17.7392 28.9183 17.5327 28.698 17.5327 28.4265V25.2789C17.5327 25.0074 17.7392 24.7871 17.9938 24.7871C18.2484 24.7871 18.4549 25.0073 18.4549 25.2789V28.4265C18.4549 28.698 18.2484 28.9183 17.9938 28.9183Z" fill="#B3404A"/>
<path d="M20.2185 28.9183C19.9639 28.9183 19.7574 28.698 19.7574 28.4265V25.2789C19.7574 25.0074 19.9639 24.7871 20.2185 24.7871C20.4731 24.7871 20.6796 25.0073 20.6796 25.2789V28.4265C20.6796 28.698 20.4731 28.9183 20.2185 28.9183Z" fill="#B3404A"/>
<path d="M22.0935 18.3033C21.8389 18.3033 21.6324 18.5235 21.6324 18.7951C21.6324 19.0667 21.8389 19.2869 22.0935 19.2869C22.6295 19.2869 23.0656 19.7521 23.0656 20.3238V21.5001H22.42H13.5677H12.9221V20.3238C12.9221 19.7521 13.3582 19.2869 13.8942 19.2869H18.6855C18.94 19.2869 19.1465 19.0667 19.1465 18.7951C19.1465 18.5235 18.9401 18.3033 18.6855 18.3033H15.9652V16.9836H20.0226V18.7951C20.0226 19.0667 20.229 19.2869 20.4836 19.2869C20.7383 19.2869 20.9447 19.0667 20.9447 18.7951V16.4918C20.9447 16.2203 20.7383 16 20.4836 16H15.5041C15.2495 16 15.043 16.2202 15.043 16.4918V18.3033H13.8942C12.8497 18.3033 12 19.2097 12 20.3238V21.9918C12 22.2634 12.2065 22.4836 12.4611 22.4836H13.1066V31.5082C13.1066 31.7797 13.3131 32 13.5677 32H22.42C22.6746 32 22.8811 31.7798 22.8811 31.5082V22.4836H23.5266C23.7812 22.4836 23.9877 22.2634 23.9877 21.9918V20.3238C23.9877 19.2097 23.1379 18.3033 22.0935 18.3033ZM21.9589 31.0164H14.0287V22.4836H21.959L21.9589 31.0164Z" fill="#B3404A"/>
<defs>
<filter id="filter0_b_17_185" x="-4.98181" y="-7.41064" width="293.134" height="392.713" filterUnits="userSpaceOnUse" color-interpolation-filters="sRGB">
<feFlood flood-opacity="0" result="BackgroundImageFix"/>
<feGaussianBlur in="BackgroundImageFix" stdDeviation="5"/>
<feComposite in2="SourceAlpha" operator="in" result="effect1_backgroundBlur_17_185"/>
<feBlend mode="normal" in="SourceGraphic" in2="effect1_backgroundBlur_17_185" result="shape"/>
</filter>
<filter id="filter1_b_17_185" x="-4.84607" y="-8.50098" width="272.782" height="381.335" filterUnits="userSpaceOnUse" color-interpolation-filters="sRGB">
<feFlood flood-opacity="0" result="BackgroundImageFix"/>
<feGaussianBlur in="BackgroundImageFix" stdDeviation="5"/>
<feComposite in2="SourceAlpha" operator="in" result="effect1_backgroundBlur_17_185"/>
<feBlend mode="normal" in="SourceGraphic" in2="effect1_backgroundBlur_17_185" result="shape"/>
</filter>
<filter id="filter2_b_17_185" x="-10" y="-10" width="252" height="369" filterUnits="userSpaceOnUse" color-interpolation-filters="sRGB">
<feFlood flood-opacity="0" result="BackgroundImageFix"/>
<feGaussianBlur in="BackgroundImageFix" stdDeviation="5"/>
<feComposite in2="SourceAlpha" operator="in" result="effect1_backgroundBlur_17_185"/>
<feBlend mode="normal" in="SourceGraphic" in2="effect1_backgroundBlur_17_185" result="shape"/>
</filter>
<linearGradient id="paint0_linear_17_185" x1="167" y1="0" x2="167" y2="349" gradientUnits="userSpaceOnUse">
<stop stop-color="#1C1C23" stop-opacity="0"/>
<stop offset="1" stop-color="#1C1C23"/>
</linearGradient>
<linearGradient id="paint1_linear_17_185" x1="51" y1="0" x2="255.111" y2="62.8492" gradientUnits="userSpaceOnUse">
<stop stop-color="#CFCFFC"/>
<stop offset="1" stop-color="#CFCFFC" stop-opacity="0"/>
</linearGradient>
<linearGradient id="paint2_linear_17_185" x1="144" y1="0" x2="144" y2="349" gradientUnits="userSpaceOnUse">
<stop stop-color="#1C1C23" stop-opacity="0"/>
<stop offset="1" stop-color="#1C1C23"/>
</linearGradient>
<linearGradient id="paint3_linear_17_185" x1="28" y1="0" x2="232.111" y2="62.8492" gradientUnits="userSpaceOnUse">
<stop stop-color="#CFCFFC"/>
<stop offset="1" stop-color="#CFCFFC" stop-opacity="0"/>
</linearGradient>
<linearGradient id="paint4_linear_17_185" x1="21" y1="164.5" x2="467.5" y2="495" gradientUnits="userSpaceOnUse">
<stop stop-color="white"/>
<stop offset="0.342546" stop-color="white" stop-opacity="0"/>
</linearGradient>
<linearGradient id="paint5_linear_17_185" x1="0" y1="0" x2="204.111" y2="62.8492" gradientUnits="userSpaceOnUse">
<stop stop-color="#CFCFFC"/>
<stop offset="1" stop-color="#CFCFFC" stop-opacity="0"/>
</linearGradient>
<clipPath id="clip0_17_185">
<rect width="232" height="349" rx="16" fill="white"/>
</clipPath>
<clipPath id="clip1_17_185">
<rect width="56" height="34" fill="white" transform="translate(88 32)"/>
</clipPath>
</defs>
</svg>
