<svg width="90" height="90" viewBox="0 0 90 90" fill="none" xmlns="http://www.w3.org/2000/svg">
<path d="M22.4202 21.9917H13.5677V31.5081H22.4202V21.9917Z" fill="#F4B2B0"/>
<path d="M15.7692 28.9183C15.5146 28.9183 15.3081 28.698 15.3081 28.4265V25.2789C15.3081 25.0074 15.5146 24.7871 15.7692 24.7871C16.0238 24.7871 16.2303 25.0073 16.2303 25.2789V28.4265C16.2302 28.698 16.0238 28.9183 15.7692 28.9183Z" fill="#B3404A"/>
<path d="M17.9938 28.9183C17.7392 28.9183 17.5327 28.698 17.5327 28.4265V25.2789C17.5327 25.0074 17.7392 24.7871 17.9938 24.7871C18.2484 24.7871 18.4549 25.0073 18.4549 25.2789V28.4265C18.4549 28.698 18.2484 28.9183 17.9938 28.9183Z" fill="#B3404A"/>
<path d="M20.2185 28.9183C19.9639 28.9183 19.7574 28.698 19.7574 28.4265V25.2789C19.7574 25.0074 19.9639 24.7871 20.2185 24.7871C20.4731 24.7871 20.6796 25.0073 20.6796 25.2789V28.4265C20.6796 28.698 20.4731 28.9183 20.2185 28.9183Z" fill="#B3404A"/>
<path d="M22.0935 18.3033C21.8389 18.3033 21.6324 18.5235 21.6324 18.7951C21.6324 19.0667 21.8389 19.2869 22.0935 19.2869C22.6295 19.2869 23.0656 19.7521 23.0656 20.3238V21.5001H22.42H13.5677H12.9221V20.3238C12.9221 19.7521 13.3582 19.2869 13.8942 19.2869H18.6855C18.94 19.2869 19.1465 19.0667 19.1465 18.7951C19.1465 18.5235 18.9401 18.3033 18.6855 18.3033H15.9652V16.9836H20.0226V18.7951C20.0226 19.0667 20.229 19.2869 20.4836 19.2869C20.7383 19.2869 20.9447 19.0667 20.9447 18.7951V16.4918C20.9447 16.2203 20.7383 16 20.4836 16H15.5041C15.2495 16 15.043 16.2202 15.043 16.4918V18.3033H13.8942C12.8497 18.3033 12 19.2097 12 20.3238V21.9918C12 22.2634 12.2065 22.4836 12.4611 22.4836H13.1066V31.5082C13.1066 31.7797 13.3131 32 13.5677 32H22.42C22.6746 32 22.8811 31.7798 22.8811 31.5082V22.4836H23.5266C23.7812 22.4836 23.9877 22.2634 23.9877 21.9918V20.3238C23.9877 19.2097 23.1379 18.3033 22.0935 18.3033ZM21.9589 31.0164H14.0287V22.4836H21.959L21.9589 31.0164Z" fill="#B3404A"/>
<defs>
</defs>
</svg>
