<svg width="22" height="22" viewBox="0 0 22 22" fill="none" xmlns="http://www.w3.org/2000/svg">
<g clip-path="url(#clip0_17_160)">
<path d="M10.9994 0.0361328C4.94301 0.0361328 0.0330811 4.94593 0.0330811 11.0023C0.0330811 17.059 4.94301 21.9684 10.9994 21.9684C17.0565 21.9684 21.9659 17.059 21.9659 11.0023C21.9659 4.94632 17.0565 0.0366566 10.9993 0.0366566L10.9994 0.0361328ZM16.0285 15.8526C15.8321 16.1747 15.4104 16.2768 15.0883 16.0791C12.5135 14.5064 9.27217 14.1502 5.45491 15.0223C5.08706 15.1061 4.72039 14.8757 4.63658 14.5077C4.55238 14.1397 4.78194 13.773 5.1507 13.6892C9.32809 12.7345 12.9113 13.1458 15.802 14.9123C16.1241 15.1101 16.2263 15.5304 16.0285 15.8526ZM17.3708 12.8662C17.1233 13.2689 16.5969 13.3959 16.1948 13.1484C13.2471 11.3361 8.75373 10.8114 5.26712 11.8698C4.81494 12.0064 4.33736 11.7515 4.20012 11.3001C4.06393 10.848 4.31889 10.3713 4.77029 10.2338C8.75294 9.02536 13.7041 9.61071 17.0892 11.6909C17.4913 11.9384 17.6183 12.4648 17.3708 12.8663V12.8662ZM17.486 9.75686C13.9516 7.65756 8.12031 7.46454 4.7458 8.48871C4.20392 8.65306 3.63087 8.34715 3.46665 7.80527C3.30244 7.26313 3.60808 6.69048 4.15036 6.52574C8.02406 5.34979 14.4636 5.57699 18.5329 7.99267C19.0213 8.28194 19.1811 8.91143 18.8917 9.39818C18.6036 9.88558 17.9724 10.0463 17.4866 9.75686H17.486Z" fill="white"/>
</g>
<defs>
<clipPath id="clip0_17_160">
<rect width="22" height="22" fill="white"/>
</clipPath>
</defs>
</svg>
