<svg width="23" height="15" viewBox="0 0 23 15" fill="none" xmlns="http://www.w3.org/2000/svg">
<g clip-path="url(#clip0_17_171)">
<path d="M13.8953 10.1225L18.6428 5.50091C17.6566 1.58665 13.74 -0.772722 9.89473 0.231124C8.1631 0.683177 6.65909 1.7759 5.67627 3.29596C5.74975 3.29408 13.8953 10.1225 13.8953 10.1225Z" fill="#0364B8"/>
<path d="M8.77039 4.16592L8.77017 4.16671C7.86302 3.59478 6.81683 3.29247 5.74976 3.29395C5.72511 3.29395 5.70088 3.29554 5.67627 3.29584C2.50231 3.33586 -0.0388497 5.9875 0.000449752 9.21842C0.0146958 10.3904 0.374442 11.531 1.03304 12.4924L8.14553 11.5857L13.5985 7.10979L8.77039 4.16592Z" fill="#0078D4"/>
<path d="M18.6427 5.50077C18.5384 5.49368 18.4335 5.48877 18.3274 5.48877C17.6905 5.48814 17.0602 5.62056 16.4756 5.87784L16.4755 5.87734L13.5985 7.10976L16.7702 11.0979L22.4403 12.5009C23.6639 10.1886 22.8144 7.3043 20.5428 6.05873C19.9558 5.73687 19.308 5.54664 18.6428 5.5008V5.50077H18.6427Z" fill="#1490DF"/>
<path d="M1.03308 12.4925C2.10701 14.0643 3.86903 15.001 5.74982 15H18.3275C20.0456 15.0005 21.6253 14.0407 22.4404 12.5011L13.5986 7.10986L1.03308 12.4925Z" fill="#28A8EA"/>
</g>
<defs>
<clipPath id="clip0_17_171">
<rect width="23" height="15" fill="white"/>
</clipPath>
</defs>
</svg>
