<svg width="336" height="293" viewBox="0 0 336 293" fill="none" xmlns="http://www.w3.org/2000/svg">
<g filter="url(#filter0_d_4_44)">
<mask id="path-1-inside-1_4_44" fill="white">
<path d="M70.4228 265.577C68.4682 267.532 65.2921 267.538 63.4072 265.516C47.9576 248.945 36.6491 228.921 30.4442 207.082C23.7829 183.637 23.2249 158.877 28.823 135.155C34.4212 111.434 45.9897 89.5362 62.4304 71.5424C78.871 53.5487 99.638 40.0558 122.76 32.3449C145.881 24.6339 170.59 22.9608 194.54 27.4845C218.49 32.0081 240.887 42.5783 259.603 58.1915C278.319 73.8047 292.734 93.9426 301.479 116.693C309.625 137.885 312.599 160.689 310.188 183.216C309.894 185.964 307.35 187.866 304.614 187.476C301.877 187.086 299.985 184.551 300.272 181.802C302.446 160.965 299.669 139.884 292.135 120.285C284.003 99.1267 270.597 80.3984 253.191 65.8781C235.785 51.3578 214.956 41.5275 192.682 37.3205C170.409 33.1136 147.43 34.6695 125.926 41.8407C104.423 49.0119 85.1101 61.5603 69.8203 78.2945C54.5305 95.0286 43.7717 115.393 38.5654 137.455C33.3591 159.516 33.8781 182.542 40.0732 204.346C45.8116 224.544 56.2441 243.072 70.49 258.433C72.3697 260.46 72.3774 263.623 70.4228 265.577Z"/>
</mask>
<path d="M70.4228 265.577C68.4682 267.532 65.2921 267.538 63.4072 265.516C47.9576 248.945 36.6491 228.921 30.4442 207.082C23.7829 183.637 23.2249 158.877 28.823 135.155C34.4212 111.434 45.9897 89.5362 62.4304 71.5424C78.871 53.5487 99.638 40.0558 122.76 32.3449C145.881 24.6339 170.59 22.9608 194.54 27.4845C218.49 32.0081 240.887 42.5783 259.603 58.1915C278.319 73.8047 292.734 93.9426 301.479 116.693C309.625 137.885 312.599 160.689 310.188 183.216C309.894 185.964 307.35 187.866 304.614 187.476C301.877 187.086 299.985 184.551 300.272 181.802C302.446 160.965 299.669 139.884 292.135 120.285C284.003 99.1267 270.597 80.3984 253.191 65.8781C235.785 51.3578 214.956 41.5275 192.682 37.3205C170.409 33.1136 147.43 34.6695 125.926 41.8407C104.423 49.0119 85.1101 61.5603 69.8203 78.2945C54.5305 95.0286 43.7717 115.393 38.5654 137.455C33.3591 159.516 33.8781 182.542 40.0732 204.346C45.8116 224.544 56.2441 243.072 70.49 258.433C72.3697 260.46 72.3774 263.623 70.4228 265.577Z" fill="#FF7966"/>
<path d="M70.4228 265.577C68.4682 267.532 65.2921 267.538 63.4072 265.516C47.9576 248.945 36.6491 228.921 30.4442 207.082C23.7829 183.637 23.2249 158.877 28.823 135.155C34.4212 111.434 45.9897 89.5362 62.4304 71.5424C78.871 53.5487 99.638 40.0558 122.76 32.3449C145.881 24.6339 170.59 22.9608 194.54 27.4845C218.49 32.0081 240.887 42.5783 259.603 58.1915C278.319 73.8047 292.734 93.9426 301.479 116.693C309.625 137.885 312.599 160.689 310.188 183.216C309.894 185.964 307.35 187.866 304.614 187.476C301.877 187.086 299.985 184.551 300.272 181.802C302.446 160.965 299.669 139.884 292.135 120.285C284.003 99.1267 270.597 80.3984 253.191 65.8781C235.785 51.3578 214.956 41.5275 192.682 37.3205C170.409 33.1136 147.43 34.6695 125.926 41.8407C104.423 49.0119 85.1101 61.5603 69.8203 78.2945C54.5305 95.0286 43.7717 115.393 38.5654 137.455C33.3591 159.516 33.8781 182.542 40.0732 204.346C45.8116 224.544 56.2441 243.072 70.49 258.433C72.3697 260.46 72.3774 263.623 70.4228 265.577Z" fill="url(#paint0_radial_4_44)" fill-opacity="0.5"/>
<path d="M70.4228 265.577C68.4682 267.532 65.2921 267.538 63.4072 265.516C47.9576 248.945 36.6491 228.921 30.4442 207.082C23.7829 183.637 23.2249 158.877 28.823 135.155C34.4212 111.434 45.9897 89.5362 62.4304 71.5424C78.871 53.5487 99.638 40.0558 122.76 32.3449C145.881 24.6339 170.59 22.9608 194.54 27.4845C218.49 32.0081 240.887 42.5783 259.603 58.1915C278.319 73.8047 292.734 93.9426 301.479 116.693C309.625 137.885 312.599 160.689 310.188 183.216C309.894 185.964 307.35 187.866 304.614 187.476C301.877 187.086 299.985 184.551 300.272 181.802C302.446 160.965 299.669 139.884 292.135 120.285C284.003 99.1267 270.597 80.3984 253.191 65.8781C235.785 51.3578 214.956 41.5275 192.682 37.3205C170.409 33.1136 147.43 34.6695 125.926 41.8407C104.423 49.0119 85.1101 61.5603 69.8203 78.2945C54.5305 95.0286 43.7717 115.393 38.5654 137.455C33.3591 159.516 33.8781 182.542 40.0732 204.346C45.8116 224.544 56.2441 243.072 70.49 258.433C72.3697 260.46 72.3774 263.623 70.4228 265.577Z" stroke="url(#paint1_linear_4_44)" stroke-opacity="0.5" stroke-width="2" mask="url(#path-1-inside-1_4_44)"/>
</g>
<defs>
<filter id="filter0_d_4_44" x="0" y="0" width="336" height="292.038" filterUnits="userSpaceOnUse" color-interpolation-filters="sRGB">
<feFlood flood-opacity="0" result="BackgroundImageFix"/>
<feColorMatrix in="SourceAlpha" type="matrix" values="0 0 0 0 0 0 0 0 0 0 0 0 0 0 0 0 0 0 127 0" result="hardAlpha"/>
<feOffset/>
<feGaussianBlur stdDeviation="12.5"/>
<feComposite in2="hardAlpha" operator="out"/>
<feColorMatrix type="matrix" values="0 0 0 0 1 0 0 0 0 0.47451 0 0 0 0 0.4 0 0 0 0.5 0"/>
<feBlend mode="normal" in2="BackgroundImageFix" result="effect1_dropShadow_4_44"/>
<feBlend mode="normal" in="SourceGraphic" in2="effect1_dropShadow_4_44" result="shape"/>
</filter>
<radialGradient id="paint0_radial_4_44" cx="0" cy="0" r="1" gradientUnits="userSpaceOnUse" gradientTransform="translate(168 311) rotate(-90) scale(286)">
<stop offset="0.432536" stop-color="white" stop-opacity="0"/>
<stop offset="1" stop-color="#FF7F37"/>
</radialGradient>
<linearGradient id="paint1_linear_4_44" x1="311" y1="25" x2="168" y2="311" gradientUnits="userSpaceOnUse">
<stop stop-color="#FFD2CC"/>
<stop offset="1" stop-color="#FFD2CC" stop-opacity="0"/>
</linearGradient>
</defs>
</svg>
