<svg width="286" height="243" viewBox="0 0 286 243" fill="none" xmlns="http://www.w3.org/2000/svg">
<g filter="url(#filter0_b_4_43)">
<mask id="path-1-inside-1_4_43" fill="white">
<path d="M45.4228 240.577C43.4682 242.532 40.2921 242.538 38.4071 240.516C20.3042 221.1 7.93948 196.999 2.74771 170.898C-2.76999 143.159 0.0618896 114.406 10.8852 88.2763C21.7086 62.1464 40.0372 39.8129 63.5535 24.0998C87.0697 8.38681 114.717 1.2924e-06 143 0C171.283 -1.2924e-06 198.93 8.3868 222.447 24.0998C245.963 39.8129 264.291 62.1464 275.115 88.2763C285.938 114.406 288.77 143.159 283.252 170.898C278.061 196.999 265.696 221.099 247.593 240.516C245.708 242.538 242.532 242.532 240.577 240.577C238.623 238.623 238.63 235.46 240.51 233.433C257.216 215.42 268.629 193.104 273.435 168.945C278.566 143.148 275.932 116.408 265.867 92.1069C255.801 67.8062 238.755 47.036 216.885 32.4228C195.015 17.8097 169.303 10.01 143 10.01C116.697 10.01 90.9848 17.8097 69.1147 32.4229C47.2446 47.036 30.199 67.8062 20.1332 92.1069C10.0676 116.408 7.4339 143.148 12.5654 168.945C17.3709 193.104 28.7843 215.42 45.4901 233.433C47.3698 235.46 47.3774 238.623 45.4228 240.577Z"/>
</mask>
<path d="M45.4228 240.577C43.4682 242.532 40.2921 242.538 38.4071 240.516C20.3042 221.1 7.93948 196.999 2.74771 170.898C-2.76999 143.159 0.0618896 114.406 10.8852 88.2763C21.7086 62.1464 40.0372 39.8129 63.5535 24.0998C87.0697 8.38681 114.717 1.2924e-06 143 0C171.283 -1.2924e-06 198.93 8.3868 222.447 24.0998C245.963 39.8129 264.291 62.1464 275.115 88.2763C285.938 114.406 288.77 143.159 283.252 170.898C278.061 196.999 265.696 221.099 247.593 240.516C245.708 242.538 242.532 242.532 240.577 240.577C238.623 238.623 238.63 235.46 240.51 233.433C257.216 215.42 268.629 193.104 273.435 168.945C278.566 143.148 275.932 116.408 265.867 92.1069C255.801 67.8062 238.755 47.036 216.885 32.4228C195.015 17.8097 169.303 10.01 143 10.01C116.697 10.01 90.9848 17.8097 69.1147 32.4229C47.2446 47.036 30.199 67.8062 20.1332 92.1069C10.0676 116.408 7.4339 143.148 12.5654 168.945C17.3709 193.104 28.7843 215.42 45.4901 233.433C47.3698 235.46 47.3774 238.623 45.4228 240.577Z" fill="#4E4E61" fill-opacity="0.2"/>
<path d="M45.4228 240.577C43.4682 242.532 40.2921 242.538 38.4071 240.516C20.3042 221.1 7.93948 196.999 2.74771 170.898C-2.76999 143.159 0.0618896 114.406 10.8852 88.2763C21.7086 62.1464 40.0372 39.8129 63.5535 24.0998C87.0697 8.38681 114.717 1.2924e-06 143 0C171.283 -1.2924e-06 198.93 8.3868 222.447 24.0998C245.963 39.8129 264.291 62.1464 275.115 88.2763C285.938 114.406 288.77 143.159 283.252 170.898C278.061 196.999 265.696 221.099 247.593 240.516C245.708 242.538 242.532 242.532 240.577 240.577C238.623 238.623 238.63 235.46 240.51 233.433C257.216 215.42 268.629 193.104 273.435 168.945C278.566 143.148 275.932 116.408 265.867 92.1069C255.801 67.8062 238.755 47.036 216.885 32.4228C195.015 17.8097 169.303 10.01 143 10.01C116.697 10.01 90.9848 17.8097 69.1147 32.4229C47.2446 47.036 30.199 67.8062 20.1332 92.1069C10.0676 116.408 7.4339 143.148 12.5654 168.945C17.3709 193.104 28.7843 215.42 45.4901 233.433C47.3698 235.46 47.3774 238.623 45.4228 240.577Z" stroke="url(#paint0_linear_4_43)" stroke-opacity="0.15" stroke-width="2" mask="url(#path-1-inside-1_4_43)"/>
</g>
<defs>
<filter id="filter0_b_4_43" x="-10.0001" y="-10" width="306" height="262.038" filterUnits="userSpaceOnUse" color-interpolation-filters="sRGB">
<feFlood flood-opacity="0" result="BackgroundImageFix"/>
<feGaussianBlur in="BackgroundImageFix" stdDeviation="5"/>
<feComposite in2="SourceAlpha" operator="in" result="effect1_backgroundBlur_4_43"/>
<feBlend mode="normal" in="SourceGraphic" in2="effect1_backgroundBlur_4_43" result="shape"/>
</filter>
<linearGradient id="paint0_linear_4_43" x1="286" y1="0" x2="59.188" y2="105.06" gradientUnits="userSpaceOnUse">
<stop stop-color="#CFCFFC"/>
<stop offset="1" stop-color="#CFCFFC" stop-opacity="0"/>
</linearGradient>
</defs>
</svg>
