<svg xmlns="http://www.w3.org/2000/svg" xmlns:xlink="http://www.w3.org/1999/xlink" width="500" zoomAndPan="magnify" viewBox="0 0 375 374.999991" height="500" preserveAspectRatio="xMidYMid meet" version="1.0"><defs><clipPath id="c4d1b6f4d9"><path d="M 0 0 L 375 0 L 375 337.25 L 0 337.25 Z M 0 0 " clip-rule="nonzero"/></clipPath><clipPath id="1b982207aa"><path d="M 5.128906 293.03125 L 374.878906 293.03125 L 374.878906 337.28125 L 5.128906 337.28125 Z M 5.128906 293.03125 " clip-rule="nonzero"/></clipPath></defs><g clip-path="url(#c4d1b6f4d9)"><path fill="#ffffff" d="M 527.835938 -112.945312 L -139.597656 -112.945312 C -166.65625 -112.945312 -188.671875 -90.929688 -188.671875 -63.871094 L -188.671875 407.261719 C -188.671875 434.320312 -166.65625 456.335938 -139.597656 456.335938 L 527.835938 456.335938 C 554.90625 456.335938 576.914062 434.320312 576.914062 407.261719 L 576.914062 -63.871094 C 576.914062 -90.929688 554.90625 -112.945312 527.835938 -112.945312 Z M 557.28125 407.261719 C 557.28125 423.496094 544.074219 436.707031 527.835938 436.707031 L -139.597656 436.707031 C -155.832031 436.707031 -169.042969 423.496094 -169.042969 407.261719 L -169.042969 -63.871094 C -169.042969 -80.105469 -155.832031 -93.316406 -139.597656 -93.316406 L 527.835938 -93.316406 C 544.074219 -93.316406 557.28125 -80.105469 557.28125 -63.871094 Z M 120.679688 247.167969 C 124.28125 249.210938 128.222656 250.234375 132.152344 250.234375 C 136.273438 250.234375 140.386719 249.113281 144.113281 246.878906 L 268.0625 172.671875 C 275.328125 168.328125 279.660156 160.621094 279.660156 152.0625 C 279.660156 143.503906 275.328125 135.796875 268.0625 131.453125 L 268.0625 131.445312 L 144.113281 57.253906 C 136.8125 52.867188 128.058594 52.761719 120.679688 56.960938 C 113.222656 61.1875 108.59375 69.1875 108.59375 77.855469 L 108.59375 226.273438 C 108.59375 234.9375 113.222656 242.941406 120.679688 247.167969 Z M 128.222656 77.855469 C 128.222656 75.5 129.707031 74.40625 130.351562 74.042969 C 130.820312 73.773438 131.433594 73.542969 132.152344 73.542969 C 132.71875 73.542969 133.359375 73.6875 134.03125 74.097656 L 257.976562 148.296875 C 259.820312 149.402344 260.027344 151.296875 260.027344 152.066406 C 260.027344 152.832031 259.820312 154.726562 257.976562 155.832031 L 134.03125 230.039062 C 132.507812 230.953125 131.183594 230.570312 130.351562 230.085938 C 129.707031 229.722656 128.222656 228.632812 128.222656 226.273438 Z M -119.96875 554.488281 C -157.847656 554.488281 -188.671875 585.3125 -188.671875 623.195312 C -188.671875 661.074219 -157.847656 691.902344 -119.96875 691.902344 C -82.085938 691.902344 -51.261719 661.074219 -51.261719 623.195312 C -51.261719 585.3125 -82.085938 554.488281 -119.96875 554.488281 Z M -119.96875 672.269531 C -147.027344 672.269531 -169.042969 650.253906 -169.042969 623.195312 C -169.042969 596.136719 -147.027344 574.117188 -119.96875 574.117188 C -92.910156 574.117188 -70.890625 596.136719 -70.890625 623.195312 C -70.890625 650.253906 -92.910156 672.269531 -119.96875 672.269531 Z M 262.824219 583.933594 C 262.824219 589.359375 258.4375 593.75 253.011719 593.75 L 17.445312 593.75 C 12.019531 593.75 7.628906 589.359375 7.628906 583.933594 C 7.628906 578.507812 12.019531 574.117188 17.445312 574.117188 L 253.011719 574.117188 C 258.4375 574.117188 262.824219 578.507812 262.824219 583.933594 Z M 145.042969 662.457031 C 145.042969 667.882812 140.652344 672.269531 135.226562 672.269531 L 17.445312 672.269531 C 12.019531 672.269531 7.628906 667.882812 7.628906 662.457031 C 7.628906 657.03125 12.019531 652.640625 17.445312 652.640625 L 135.226562 652.640625 C 140.652344 652.640625 145.042969 657.03125 145.042969 662.457031 Z M 419.871094 583.933594 C 419.871094 589.359375 415.480469 593.75 410.054688 593.75 L 370.792969 593.75 C 365.367188 593.75 360.976562 589.359375 360.976562 583.933594 C 360.976562 578.507812 365.367188 574.117188 370.792969 574.117188 L 410.054688 574.117188 C 415.480469 574.117188 419.871094 578.507812 419.871094 583.933594 Z M 498.390625 583.933594 C 498.390625 589.359375 494 593.75 488.574219 593.75 L 449.316406 593.75 C 443.890625 593.75 439.5 589.359375 439.5 583.933594 C 439.5 578.507812 443.890625 574.117188 449.316406 574.117188 L 488.574219 574.117188 C 494 574.117188 498.390625 578.507812 498.390625 583.933594 Z M 576.914062 583.933594 C 576.914062 589.359375 572.523438 593.75 567.097656 593.75 L 527.835938 593.75 C 522.410156 593.75 518.019531 589.359375 518.019531 583.933594 C 518.019531 578.507812 522.410156 574.117188 527.835938 574.117188 L 567.097656 574.117188 C 572.523438 574.117188 576.914062 578.507812 576.914062 583.933594 Z M 7.628906 368 C 7.628906 373.425781 3.242188 377.8125 -2.183594 377.8125 L -100.335938 377.8125 C -105.761719 377.8125 -110.152344 373.425781 -110.152344 368 C -110.152344 362.574219 -105.761719 358.183594 -100.335938 358.183594 L -2.183594 358.183594 C 3.242188 358.183594 7.628906 362.574219 7.628906 368 Z M 498.390625 368 C 498.390625 373.425781 494 377.8125 488.574219 377.8125 L 56.707031 377.8125 C 51.28125 377.8125 46.890625 373.425781 46.890625 368 C 46.890625 362.574219 51.28125 358.183594 56.707031 358.183594 L 488.574219 358.183594 C 494 358.183594 498.390625 362.574219 498.390625 368 Z M 498.390625 368 " fill-opacity="1" fill-rule="nonzero"/></g><g clip-path="url(#1b982207aa)"><path fill="#ffffff" d="M 386.335938 34.125 L -7.617188 34.125 C -23.589844 34.125 -36.585938 47.117188 -36.585938 63.089844 L -36.585938 341.175781 C -36.585938 357.144531 -23.589844 370.140625 -7.617188 370.140625 L 386.335938 370.140625 C 402.3125 370.140625 415.300781 357.144531 415.300781 341.175781 L 415.300781 63.089844 C 415.300781 47.117188 402.3125 34.125 386.335938 34.125 Z M 403.714844 341.175781 C 403.714844 350.757812 395.917969 358.554688 386.335938 358.554688 L -7.617188 358.554688 C -17.199219 358.554688 -24.996094 350.757812 -24.996094 341.175781 L -24.996094 63.089844 C -24.996094 53.507812 -17.199219 45.710938 -7.617188 45.710938 L 386.335938 45.710938 C 395.917969 45.710938 403.714844 53.507812 403.714844 63.089844 Z M 146.011719 246.679688 C 148.136719 247.886719 150.460938 248.488281 152.78125 248.488281 C 155.214844 248.488281 157.640625 247.828125 159.84375 246.511719 L 233.003906 202.707031 C 237.292969 200.144531 239.847656 195.597656 239.847656 190.542969 C 239.847656 185.492188 237.292969 180.945312 233.003906 178.378906 L 233.003906 178.375 L 159.84375 134.585938 C 155.53125 131.992188 150.367188 131.929688 146.011719 134.410156 C 141.609375 136.902344 138.878906 141.628906 138.878906 146.742188 L 138.878906 234.347656 C 138.878906 239.460938 141.609375 244.183594 146.011719 246.679688 Z M 150.460938 146.742188 C 150.460938 145.351562 151.339844 144.707031 151.71875 144.492188 C 151.996094 144.332031 152.359375 144.199219 152.78125 144.199219 C 153.117188 144.199219 153.496094 144.28125 153.890625 144.527344 L 227.050781 188.320312 C 228.136719 188.972656 228.261719 190.09375 228.261719 190.546875 C 228.261719 191 228.136719 192.117188 227.050781 192.769531 L 153.890625 236.570312 C 152.992188 237.109375 152.210938 236.882812 151.71875 236.597656 C 151.339844 236.382812 150.460938 235.738281 150.460938 234.347656 Z M 3.96875 428.074219 C -18.390625 428.074219 -36.585938 446.269531 -36.585938 468.628906 C -36.585938 490.988281 -18.390625 509.183594 3.96875 509.183594 C 26.328125 509.183594 44.523438 490.988281 44.523438 468.628906 C 44.523438 446.269531 26.328125 428.074219 3.96875 428.074219 Z M 3.96875 497.597656 C -12.003906 497.597656 -24.996094 484.601562 -24.996094 468.628906 C -24.996094 452.660156 -12.003906 439.664062 3.96875 439.664062 C 19.941406 439.664062 32.9375 452.660156 32.9375 468.628906 C 32.9375 484.601562 19.941406 497.597656 3.96875 497.597656 Z M 229.914062 445.457031 C 229.914062 448.660156 227.320312 451.25 224.117188 451.25 L 85.078125 451.25 C 81.875 451.25 79.285156 448.660156 79.285156 445.457031 C 79.285156 442.253906 81.875 439.664062 85.078125 439.664062 L 224.117188 439.664062 C 227.320312 439.664062 229.914062 442.253906 229.914062 445.457031 Z M 160.390625 491.804688 C 160.390625 495.007812 157.800781 497.597656 154.597656 497.597656 L 85.078125 497.597656 C 81.875 497.597656 79.285156 495.007812 79.285156 491.804688 C 79.285156 488.601562 81.875 486.011719 85.078125 486.011719 L 154.597656 486.011719 C 157.800781 486.011719 160.390625 488.601562 160.390625 491.804688 Z M 322.605469 445.457031 C 322.605469 448.660156 320.015625 451.25 316.8125 451.25 L 293.640625 451.25 C 290.4375 451.25 287.847656 448.660156 287.847656 445.457031 C 287.847656 442.253906 290.4375 439.664062 293.640625 439.664062 L 316.8125 439.664062 C 320.015625 439.664062 322.605469 442.253906 322.605469 445.457031 Z M 368.953125 445.457031 C 368.953125 448.660156 366.363281 451.25 363.160156 451.25 L 339.988281 451.25 C 336.785156 451.25 334.195312 448.660156 334.195312 445.457031 C 334.195312 442.253906 336.785156 439.664062 339.988281 439.664062 L 363.160156 439.664062 C 366.363281 439.664062 368.953125 442.253906 368.953125 445.457031 Z M 415.300781 445.457031 C 415.300781 448.660156 412.710938 451.25 409.507812 451.25 L 386.335938 451.25 C 383.132812 451.25 380.542969 448.660156 380.542969 445.457031 C 380.542969 442.253906 383.132812 439.664062 386.335938 439.664062 L 409.507812 439.664062 C 412.710938 439.664062 415.300781 442.253906 415.300781 445.457031 Z M 79.285156 318 C 79.285156 321.203125 76.691406 323.792969 73.488281 323.792969 L 15.554688 323.792969 C 12.351562 323.792969 9.761719 321.203125 9.761719 318 C 9.761719 314.796875 12.351562 312.207031 15.554688 312.207031 L 73.488281 312.207031 C 76.691406 312.207031 79.285156 314.796875 79.285156 318 Z M 368.953125 318 C 368.953125 321.203125 366.363281 323.792969 363.160156 323.792969 L 108.25 323.792969 C 105.046875 323.792969 102.457031 321.203125 102.457031 318 C 102.457031 314.796875 105.046875 312.207031 108.25 312.207031 L 363.160156 312.207031 C 366.363281 312.207031 368.953125 314.796875 368.953125 318 Z M 368.953125 318 " fill-opacity="1" fill-rule="nonzero"/></g></svg>