<svg xmlns="http://www.w3.org/2000/svg" xmlns:xlink="http://www.w3.org/1999/xlink" width="500" zoomAndPan="magnify" viewBox="0 0 375 374.999991" height="500" preserveAspectRatio="xMidYMid meet" version="1.0"><path fill="#ff7966" d="M 361.265625 141.699219 L 242.75 23.167969 C 228.082031 8.542969 208.214844 0.332031 187.5 0.332031 C 166.785156 0.332031 146.917969 8.542969 132.25 23.167969 L 13.734375 141.699219 C 9.367188 146.039062 5.902344 151.203125 3.546875 156.894531 C 1.1875 162.582031 -0.015625 168.683594 0 174.839844 L 0 328.230469 C 0 340.664062 4.9375 352.585938 13.730469 361.378906 C 22.519531 370.167969 34.441406 375.105469 46.875 375.105469 L 328.125 375.105469 C 340.554688 375.105469 352.480469 370.167969 361.269531 361.378906 C 370.0625 352.585938 375 340.664062 375 328.230469 L 375 174.839844 C 375.019531 168.683594 373.8125 162.582031 371.453125 156.894531 C 369.097656 151.203125 365.632812 146.039062 361.265625 141.699219 Z M 234.375 343.855469 L 140.625 343.855469 L 140.625 282.386719 C 140.625 269.957031 145.5625 258.035156 154.355469 249.242188 C 163.144531 240.449219 175.066406 235.511719 187.5 235.511719 C 199.933594 235.511719 211.855469 240.449219 220.644531 249.242188 C 229.4375 258.035156 234.375 269.957031 234.375 282.386719 Z M 343.75 328.230469 C 343.75 332.375 342.105469 336.351562 339.171875 339.277344 C 336.242188 342.210938 332.269531 343.855469 328.125 343.855469 L 265.625 343.855469 L 265.625 282.386719 C 265.625 261.667969 257.394531 241.796875 242.742188 227.144531 C 228.089844 212.492188 208.21875 204.261719 187.5 204.261719 C 166.78125 204.261719 146.910156 212.492188 132.257812 227.144531 C 117.605469 241.796875 109.375 261.667969 109.375 282.386719 L 109.375 343.855469 L 46.875 343.855469 C 42.730469 343.855469 38.757812 342.210938 35.828125 339.277344 C 32.894531 336.351562 31.25 332.375 31.25 328.230469 L 31.25 174.839844 C 31.265625 170.699219 32.910156 166.730469 35.828125 163.792969 L 154.34375 45.308594 C 163.152344 36.542969 175.074219 31.621094 187.5 31.621094 C 199.925781 31.621094 211.847656 36.542969 220.65625 45.308594 L 339.171875 163.839844 C 342.078125 166.765625 343.722656 170.714844 343.75 174.839844 Z M 343.75 328.230469 " fill-opacity="1" fill-rule="nonzero"/></svg>