<svg xmlns="http://www.w3.org/2000/svg" xmlns:xlink="http://www.w3.org/1999/xlink" width="500" zoomAndPan="magnify" viewBox="0 0 375 374.999991" height="500" preserveAspectRatio="xMidYMid meet" version="1.0"><path fill="#ff7966" d="M 85.9375 228.128906 C 98.882812 228.128906 109.375 217.636719 109.375 204.691406 C 109.375 191.746094 98.882812 181.253906 85.9375 181.253906 C 72.992188 181.253906 62.5 191.746094 62.5 204.691406 C 62.5 217.636719 72.992188 228.128906 85.9375 228.128906 Z M 85.9375 228.128906 " fill-opacity="1" fill-rule="nonzero"/><path fill="#ff7966" d="M 296.875 9.375 L 78.125 9.375 C 57.414062 9.398438 37.554688 17.636719 22.910156 32.285156 C 8.265625 46.929688 0.0234375 66.785156 0 87.5 L 0 212.5 C 0.0234375 233.210938 8.265625 253.070312 22.910156 267.714844 C 37.554688 282.359375 57.414062 290.601562 78.125 290.625 L 296.875 290.625 C 317.585938 290.601562 337.445312 282.359375 352.089844 267.714844 C 366.734375 253.070312 374.976562 233.210938 375 212.5 L 375 87.5 C 374.976562 66.785156 366.734375 46.929688 352.089844 32.285156 C 337.445312 17.636719 317.585938 9.398438 296.875 9.375 Z M 78.125 40.625 L 296.875 40.625 C 309.304688 40.625 321.230469 45.5625 330.019531 54.351562 C 338.808594 63.144531 343.75 75.066406 343.75 87.5 L 31.25 87.5 C 31.25 75.066406 36.1875 63.144531 44.980469 54.351562 C 53.769531 45.5625 65.691406 40.625 78.125 40.625 Z M 296.875 259.375 L 78.125 259.375 C 65.691406 259.375 53.769531 254.433594 44.980469 245.644531 C 36.1875 236.855469 31.25 224.929688 31.25 212.5 L 31.25 118.75 L 343.75 118.75 L 343.75 212.5 C 343.75 224.929688 338.808594 236.855469 330.019531 245.644531 C 321.230469 254.433594 309.304688 259.375 296.875 259.375 Z M 296.875 259.375 " fill-opacity="1" fill-rule="nonzero"/><path fill="#ff7966" d="M 375 296.875 L 343.75 309.375 C 343.75 321.808594 338.808594 321.230469 330.019531 330.019531 C 321.230469 338.808594 309.304688 343.75 296.875 343.75 L 78.125 343.75 C 65.691406 343.75 53.769531 338.808594 44.980469 330.019531 C 36.1875 321.230469 31.25 321.808594 31.25 309.375 L 0 296.875 C 0.0234375 317.585938 8.265625 337.445312 22.910156 352.089844 C 37.554688 366.734375 57.414062 374.976562 78.125 375 L 296.875 375 C 317.585938 374.976562 337.445312 366.734375 352.089844 352.089844 C 366.734375 337.445312 374.976562 317.585938 375 296.875 Z M 375 296.875 " fill-opacity="1" fill-rule="evenodd"/></svg>