<svg xmlns="http://www.w3.org/2000/svg" xmlns:xlink="http://www.w3.org/1999/xlink" width="500" zoomAndPan="magnify" viewBox="0 0 375 374.999991" height="500" preserveAspectRatio="xMidYMid meet" version="1.0"><defs><clipPath id="f5cd1ad378"><path d="M 24 0 L 348 0 L 348 373.832031 L 24 373.832031 Z M 24 0 " clip-rule="nonzero"/></clipPath></defs><g clip-path="url(#f5cd1ad378)"><path fill="#ff7966" d="M 321.898438 40.542969 L 267.921875 40.542969 L 267.921875 32.832031 C 267.921875 14.757812 253.226562 0.0625 235.152344 0.0625 L 136.679688 0.0625 C 118.605469 0.0625 103.90625 14.757812 103.90625 32.832031 L 103.90625 40.542969 L 49.941406 40.542969 C 35.804688 40.542969 24.292969 52.035156 24.292969 66.171875 L 24.292969 78.335938 C 24.292969 91.566406 34.375 102.492188 47.257812 103.832031 L 73.660156 335.542969 C 76.179688 357.667969 94.875 374.359375 117.15625 374.359375 L 254.675781 374.359375 C 276.945312 374.359375 295.652344 357.667969 298.167969 335.542969 L 324.574219 103.832031 C 337.457031 102.492188 347.527344 91.566406 347.527344 78.335938 L 347.527344 66.171875 C 347.527344 52.035156 336.023438 40.542969 321.886719 40.542969 Z M 120.550781 32.832031 C 120.550781 23.933594 127.789062 16.695312 136.6875 16.695312 L 235.160156 16.695312 C 244.050781 16.695312 251.289062 23.933594 251.289062 32.832031 L 251.289062 40.542969 L 120.550781 40.542969 Z M 281.640625 333.65625 C 280.074219 347.375 268.492188 357.714844 254.683594 357.714844 L 117.164062 357.714844 C 103.355469 357.714844 91.761719 347.375 90.207031 333.65625 L 64.03125 103.976562 L 307.8125 103.976562 Z M 330.902344 78.335938 C 330.902344 83.296875 326.859375 87.332031 321.898438 87.332031 L 49.941406 87.332031 C 44.972656 87.332031 40.933594 83.296875 40.933594 78.335938 L 40.933594 66.171875 C 40.933594 61.222656 44.972656 57.175781 49.941406 57.175781 L 321.886719 57.175781 C 326.847656 57.175781 330.894531 61.222656 330.894531 66.171875 L 330.894531 78.335938 Z M 330.902344 78.335938 " fill-opacity="1" fill-rule="nonzero"/></g><path fill="#ff7966" d="M 185.914062 312.683594 C 190.511719 312.683594 194.238281 308.957031 194.238281 304.363281 L 194.238281 157.328125 C 194.238281 152.742188 190.511719 149.007812 185.914062 149.007812 C 181.328125 149.007812 177.59375 152.742188 177.59375 157.328125 L 177.59375 304.363281 C 177.59375 308.957031 181.328125 312.683594 185.914062 312.683594 Z M 185.914062 312.683594 " fill-opacity="1" fill-rule="nonzero"/><path fill="#ff7966" d="M 235.65625 312.292969 C 235.933594 312.328125 236.199219 312.335938 236.46875 312.335938 C 240.707031 312.335938 244.324219 309.128906 244.742188 304.824219 L 258.996094 158.484375 C 259.441406 153.90625 256.097656 149.84375 251.519531 149.390625 C 246.886719 148.925781 242.878906 152.296875 242.433594 156.867188 L 228.179688 303.207031 C 227.734375 307.785156 231.078125 311.847656 235.648438 312.292969 Z M 235.65625 312.292969 " fill-opacity="1" fill-rule="nonzero"/><path fill="#ff7966" d="M 135.363281 312.335938 C 135.628906 312.335938 135.90625 312.328125 136.171875 312.292969 C 140.75 311.855469 144.09375 307.785156 143.648438 303.207031 L 129.398438 156.867188 C 128.953125 152.296875 124.941406 148.925781 120.300781 149.390625 C 115.730469 149.832031 112.390625 153.90625 112.832031 158.484375 L 127.085938 304.824219 C 127.503906 309.117188 131.121094 312.335938 135.355469 312.335938 Z M 135.363281 312.335938 " fill-opacity="1" fill-rule="nonzero"/></svg>