<svg width="26" height="17" viewBox="0 0 26 17" fill="none" xmlns="http://www.w3.org/2000/svg">
<g clip-path="url(#clip0_4_82)">
<path d="M15.7078 11.4722L21.0745 6.23436C19.9597 1.7982 15.5323 -0.875752 11.1854 0.26194C9.22794 0.774268 7.52776 2.01268 6.41675 3.73543C6.49982 3.73329 15.7078 11.4722 15.7078 11.4722Z" fill="#0364B8"/>
<path d="M9.91436 4.72139L9.9141 4.72229C8.88863 4.0741 7.70598 3.73149 6.49973 3.73316C6.47186 3.73316 6.44447 3.73496 6.41666 3.7353C2.82869 3.78066 -0.0439171 6.78585 0.000508415 10.4476C0.0166127 11.7758 0.423282 13.0685 1.16779 14.1581L9.20799 13.1304L15.3723 8.05778L9.91436 4.72139Z" fill="#0078D4"/>
<path d="M21.0745 6.23431C20.9565 6.22627 20.8379 6.22071 20.718 6.22071C19.998 6.21998 19.2856 6.37007 18.6247 6.66165L18.6246 6.66108L15.3723 8.05782L18.9577 12.5777L25.3674 14.1678C26.7506 11.5472 25.7902 8.27831 23.2224 6.86665C22.5588 6.50188 21.8265 6.28629 21.0745 6.23433V6.23431H21.0745Z" fill="#1490DF"/>
<path d="M1.16785 14.1582C2.38185 15.9395 4.3737 17.0011 6.49981 17H20.718C22.6603 17.0006 24.446 15.9128 25.3674 14.1679L15.3723 8.05786L1.16785 14.1582Z" fill="#28A8EA"/>
</g>
<defs>
<clipPath id="clip0_4_82">
<rect width="26" height="17" fill="white"/>
</clipPath>
</defs>
</svg>
