<svg width="20" height="20" viewBox="0 0 20 20" fill="none" xmlns="http://www.w3.org/2000/svg">
<g clip-path="url(#clip0_158_655)">
<path d="M15.8333 16.6673H4.16667C3.062 16.666 2.00296 16.2266 1.22185 15.4455C0.440735 14.6644 0.00132321 13.6053 0 12.5007L0 7.50065C0.00132321 6.39599 0.440735 5.33695 1.22185 4.55583C2.00296 3.77472 3.062 3.33531 4.16667 3.33398H15.8333C16.938 3.33531 17.997 3.77472 18.7782 4.55583C19.5593 5.33695 19.9987 6.39599 20 7.50065V12.5007C19.9987 13.6053 19.5593 14.6644 18.7782 15.4455C17.997 16.2266 16.938 16.666 15.8333 16.6673ZM4.16667 5.00065C3.50363 5.00065 2.86774 5.26404 2.3989 5.73288C1.93006 6.20173 1.66667 6.83761 1.66667 7.50065V12.5007C1.66667 13.1637 1.93006 13.7996 2.3989 14.2684C2.86774 14.7373 3.50363 15.0007 4.16667 15.0007H15.8333C16.4964 15.0007 17.1323 14.7373 17.6011 14.2684C18.0699 13.7996 18.3333 13.1637 18.3333 12.5007V7.50065C18.3333 6.83761 18.0699 6.20173 17.6011 5.73288C17.1323 5.26404 16.4964 5.00065 15.8333 5.00065H4.16667ZM10 13.334C9.34073 13.334 8.69626 13.1385 8.1481 12.7722C7.59994 12.4059 7.17269 11.8854 6.9204 11.2763C6.66811 10.6672 6.6021 9.99695 6.73072 9.35035C6.85933 8.70375 7.1768 8.1098 7.64298 7.64363C8.10915 7.17745 8.7031 6.85998 9.3497 6.73137C9.9963 6.60275 10.6665 6.66876 11.2756 6.92105C11.8847 7.17334 12.4053 7.60059 12.7716 8.14875C13.1378 8.69691 13.3333 9.34138 13.3333 10.0007C13.3333 10.8847 12.9821 11.7326 12.357 12.3577C11.7319 12.9828 10.8841 13.334 10 13.334ZM10 8.33398C9.67036 8.33398 9.34813 8.43173 9.07405 8.61487C8.79997 8.798 8.58635 9.0583 8.4602 9.36285C8.33405 9.66739 8.30105 10.0025 8.36536 10.3258C8.42967 10.6491 8.5884 10.9461 8.82149 11.1792C9.05458 11.4122 9.35155 11.571 9.67485 11.6353C9.99815 11.6996 10.3333 11.6666 10.6378 11.5405C10.9423 11.4143 11.2026 11.2007 11.3858 10.9266C11.5689 10.6525 11.6667 10.3303 11.6667 10.0007C11.6667 9.55862 11.4911 9.1347 11.1785 8.82214C10.8659 8.50958 10.442 8.33398 10 8.33398ZM4.16667 6.66732C4.00185 6.66732 3.84073 6.71619 3.70369 6.80776C3.56665 6.89933 3.45984 7.02948 3.39677 7.18175C3.33369 7.33402 3.31719 7.50158 3.34935 7.66323C3.3815 7.82488 3.46087 7.97336 3.57741 8.08991C3.69395 8.20645 3.84244 8.28582 4.00409 8.31797C4.16574 8.35013 4.3333 8.33362 4.48557 8.27055C4.63784 8.20748 4.76799 8.10067 4.85956 7.96363C4.95113 7.82659 5 7.66547 5 7.50065C5 7.27964 4.9122 7.06768 4.75592 6.9114C4.59964 6.75512 4.38768 6.66732 4.16667 6.66732ZM15 7.50065C15 7.66547 15.0489 7.82659 15.1404 7.96363C15.232 8.10067 15.3622 8.20748 15.5144 8.27055C15.6667 8.33362 15.8343 8.35013 15.9959 8.31797C16.1576 8.28582 16.306 8.20645 16.4226 8.08991C16.5391 7.97336 16.6185 7.82488 16.6507 7.66323C16.6828 7.50158 16.6663 7.33402 16.6032 7.18175C16.5402 7.02948 16.4333 6.89933 16.2963 6.80776C16.1593 6.71619 15.9982 6.66732 15.8333 6.66732C15.6123 6.66732 15.4004 6.75512 15.2441 6.9114C15.0878 7.06768 15 7.27964 15 7.50065ZM4.16667 11.6673C4.00185 11.6673 3.84073 11.7162 3.70369 11.8078C3.56665 11.8993 3.45984 12.0295 3.39677 12.1817C3.33369 12.334 3.31719 12.5016 3.34935 12.6632C3.3815 12.8249 3.46087 12.9734 3.57741 13.0899C3.69395 13.2065 3.84244 13.2858 4.00409 13.318C4.16574 13.3501 4.3333 13.3336 4.48557 13.2706C4.63784 13.2075 4.76799 13.1007 4.85956 12.9636C4.95113 12.8266 5 12.6655 5 12.5007C5 12.2796 4.9122 12.0677 4.75592 11.9114C4.59964 11.7551 4.38768 11.6673 4.16667 11.6673ZM15 12.5007C15 12.6655 15.0489 12.8266 15.1404 12.9636C15.232 13.1007 15.3622 13.2075 15.5144 13.2706C15.6667 13.3336 15.8343 13.3501 15.9959 13.318C16.1576 13.2858 16.306 13.2065 16.4226 13.0899C16.5391 12.9734 16.6185 12.8249 16.6507 12.6632C16.6828 12.5016 16.6663 12.334 16.6032 12.1817C16.5402 12.0295 16.4333 11.8993 16.2963 11.8078C16.1593 11.7162 15.9982 11.6673 15.8333 11.6673C15.6123 11.6673 15.4004 11.7551 15.2441 11.9114C15.0878 12.0677 15 12.2796 15 12.5007Z" fill="#C1C1CD"/>
</g>
<defs>
<clipPath id="clip0_158_655">
<rect width="20" height="20" fill="white"/>
</clipPath>
</defs>
</svg>
