<svg width="20" height="20" viewBox="0 0 20 20" fill="none" xmlns="http://www.w3.org/2000/svg">
<g clip-path="url(#clip0_158_636)">
<path d="M0 2.5V9.16667H9.16667V0H2.5C1.83696 0 1.20107 0.263392 0.732233 0.732233C0.263392 1.20107 0 1.83696 0 2.5H0ZM7.5 7.5H1.66667V2.5C1.66667 2.27899 1.75446 2.06702 1.91074 1.91074C2.06702 1.75446 2.27899 1.66667 2.5 1.66667H7.5V7.5Z" fill="#C1C1CD"/>
<path d="M0 17.4997C0 18.1627 0.263392 18.7986 0.732233 19.2674C1.20107 19.7363 1.83696 19.9997 2.5 19.9997H9.16667V10.833H0V17.4997ZM1.66667 12.4997H7.5V18.333H2.5C2.27899 18.333 2.06702 18.2452 1.91074 18.0889C1.75446 17.9326 1.66667 17.7207 1.66667 17.4997V12.4997Z" fill="#C1C1CD"/>
<path d="M16.6666 17.8472V2.15474L18.8199 4.30474L19.9999 3.12557L17.6007 0.729741C17.132 0.261827 16.4968 -0.000976563 15.8345 -0.000976562C15.1722 -0.000976562 14.5369 0.261827 14.0682 0.729741L11.6724 3.12141L12.8499 4.30057L14.9999 2.15141V17.8464L12.8457 15.6947L11.6682 16.8739L14.0674 19.2697C14.5361 19.7377 15.1713 20.0005 15.8336 20.0005C16.4959 20.0005 17.1312 19.7377 17.5999 19.2697L19.9999 16.8781L18.8224 15.6989L16.6666 17.8472Z" fill="#C1C1CD"/>
</g>
<defs>
<clipPath id="clip0_158_636">
<rect width="20" height="20" fill="white"/>
</clipPath>
</defs>
</svg>
