<svg width="12" height="12" viewBox="0 0 12 12" fill="none" xmlns="http://www.w3.org/2000/svg">
<g clip-path="url(#clip0_158_634)">
<path d="M3.41501 -7.72476e-05C3.48081 -0.000457764 3.54604 0.0121546 3.60696 0.0370369C3.66788 0.0619192 3.72329 0.0985823 3.77001 0.144923L7.85501 4.22992C8.08782 4.46215 8.27254 4.73802 8.39857 5.04175C8.5246 5.34547 8.58948 5.67108 8.58948 5.99992C8.58948 6.32875 8.5246 6.65436 8.39857 6.95808C8.27254 7.26181 8.08782 7.53768 7.85501 7.76991L3.77001 11.8549C3.72339 11.9015 3.66804 11.9385 3.60713 11.9637C3.54622 11.989 3.48094 12.002 3.41501 12.002C3.34908 12.002 3.2838 11.989 3.22288 11.9637C3.16197 11.9385 3.10663 11.9015 3.06001 11.8549C3.01339 11.8083 2.97641 11.7529 2.95118 11.692C2.92595 11.6311 2.91296 11.5658 2.91296 11.4999C2.91296 11.434 2.92595 11.3687 2.95118 11.3078C2.97641 11.2469 3.01339 11.1915 3.06001 11.1449L7.14501 7.05991C7.42591 6.77866 7.58369 6.39742 7.58369 5.99992C7.58369 5.60241 7.42591 5.22117 7.14501 4.93992L3.06001 0.854921C3.01314 0.808439 2.97595 0.753139 2.95056 0.69221C2.92518 0.631281 2.91211 0.565928 2.91211 0.499922C2.91211 0.433916 2.92518 0.368564 2.95056 0.307633C2.97595 0.246704 3.01314 0.191404 3.06001 0.144923C3.10673 0.0985823 3.16214 0.0619192 3.22305 0.0370369C3.28397 0.0121546 3.34921 -0.000457764 3.41501 -7.72476e-05Z" fill="#A2A2B5"/>
</g>
<defs>
<clipPath id="clip0_158_634">
<rect width="12" height="12" fill="white" transform="matrix(-1 0 0 -1 12 12)"/>
</clipPath>
</defs>
</svg>
