<svg width="62" height="41" viewBox="0 0 62 41" fill="none" xmlns="http://www.w3.org/2000/svg">
<g clip-path="url(#clip0_4_861)">
<path d="M37.1853 28L50 15.2161C47.3381 4.38884 36.7661 -2.13743 26.3867 0.639314C21.7126 1.88974 17.6529 4.91233 15 9.117C15.1984 9.11178 37.1853 28 37.1853 28Z" fill="#0364B8"/>
<path d="M23.8632 11.3699L23.8626 11.372C21.3944 9.81762 18.5478 8.996 15.6444 9.00001C15.5773 9.00001 15.5114 9.00434 15.4445 9.00514C6.80848 9.11393 -0.105705 16.3206 0.00122372 25.1017C0.0399856 28.2871 1.01881 31.3871 2.81079 34L22.163 31.5355L37 19.3708L23.8632 11.3699Z" fill="#0078D4"/>
<path d="M50.4134 15.0325C50.1359 15.0133 49.857 15 49.5748 15C47.8812 14.9983 46.2053 15.3571 44.6507 16.0542L44.6504 16.0529L37 19.3922L45.434 30.1983L60.5118 34C63.7656 27.7345 61.5064 19.9193 55.4659 16.5443C53.9051 15.6722 52.1823 15.1568 50.4135 15.0326V15.0325H50.4134Z" fill="#1490DF"/>
<path d="M3 34.0085C5.90964 38.391 10.6836 41.0028 15.7793 41H49.8566C54.5117 41.0014 58.7916 38.3253 61 34.0324L37.0444 19L3 34.0085Z" fill="#28A8EA"/>
</g>
<defs>
<clipPath id="clip0_4_861">
<rect width="62" height="41" fill="white"/>
</clipPath>
</defs>
</svg>
