<svg width="55" height="55" viewBox="0 0 55 55" fill="none" xmlns="http://www.w3.org/2000/svg">
<path d="M53.8672 8.60588C53.2329 5.24118 51.3754 2.58824 49.0196 1.68235C44.7156 0 27.4999 0 27.4999 0C27.4999 0 10.2841 0 5.98021 1.61765C3.66967 2.52353 1.76688 5.24118 1.13261 8.60588C0 14.7529 0 27.5 0 27.5C0 27.5 0 40.3118 1.13261 46.3941C1.76688 49.7588 3.62437 52.4118 5.98021 53.3176C10.3294 55 27.4999 55 27.4999 55C27.4999 55 44.7156 55 49.0196 53.3824C51.3754 52.4765 53.2329 49.8235 53.8672 46.4588C54.9998 40.3118 54.9998 27.5647 54.9998 27.5647C54.9998 27.5647 55.0451 14.7529 53.8672 8.60588Z" fill="white"/>
</svg>
